<?xml version="1.0" encoding="UTF-8"?>
<!DOCTYPE svg PUBLIC "-//W3C//DTD SVG 1.1//EN" "http://www.w3.org/Graphics/SVG/1.1/DTD/svg11.dtd">
<svg xmlns="http://www.w3.org/2000/svg" xmlns:xlink="http://www.w3.org/1999/xlink" width="430px" height="607px" version="1.1"><defs><linearGradient x1="0%" y1="0%" x2="0%" y2="100%" id="mx-gradient-ffcd28-1-ffa500-1-s-0"><stop offset="0%" style="stop-color:#FFCD28"/><stop offset="100%" style="stop-color:#FFA500"/></linearGradient></defs><g transform="translate(0.5,0.5)"><path d="M 110.31 301.19 L 690.31 301.19" fill="none" stroke="#d0d0d0" stroke-width="22" stroke-miterlimit="10" transform="translate(2,3)rotate(90,400.31,301.19)" opacity="1"/><path d="M 110.31 301.19 L 690.31 301.19" fill="none" stroke="#ff8000" stroke-width="22" stroke-miterlimit="10" transform="rotate(90,400.31,301.19)" pointer-events="none"/><path d="M 35.31 21.19 L 415.31 21.19" fill="none" stroke="#d0d0d0" stroke-width="22" stroke-miterlimit="10" transform="translate(2,3)" opacity="1"/><path d="M 35.31 21.19 L 415.31 21.19" fill="none" stroke="#ff8000" stroke-width="22" stroke-miterlimit="10" pointer-events="none"/><path d="M 301.31 58.19 L 411.31 58.19" fill="none" stroke="#d0d0d0" stroke-width="22" stroke-miterlimit="10" transform="translate(2,3)rotate(224,356.31,58.19)" opacity="1"/><path d="M 301.31 58.19 L 411.31 58.19" fill="none" stroke="#ff8000" stroke-width="22" stroke-miterlimit="10" transform="rotate(224,356.31,58.19)" pointer-events="none"/><path d="M 0.31 71.19 L 100.31 71.19" fill="none" stroke="#d0d0d0" stroke-width="9" stroke-miterlimit="10" transform="translate(2,3)rotate(90,50.31,71.19)" opacity="1"/><path d="M 0.31 71.19 L 100.31 71.19" fill="none" stroke="#ff8000" stroke-width="9" stroke-miterlimit="10" transform="rotate(90,50.31,71.19)" pointer-events="none"/><ellipse cx="50" cy="161" rx="40" ry="40" fill="#d0d0d0" stroke="#d0d0d0" stroke-width="9" transform="translate(2,3)" opacity="1"/><ellipse cx="50" cy="161" rx="40" ry="40" fill="url(#mx-gradient-ffcd28-1-ffa500-1-s-0)" stroke="#ff8000" stroke-width="9" pointer-events="none"/><path d="M -9.69 261.19 L 110.31 261.19" fill="none" stroke="#d0d0d0" stroke-width="9" stroke-miterlimit="10" transform="translate(2,3)rotate(90,50.31,261.19)" opacity="1"/><path d="M -9.69 261.19 L 110.31 261.19" fill="none" stroke="#ff8000" stroke-width="9" stroke-miterlimit="10" transform="rotate(90,50.31,261.19)" pointer-events="none"/><path d="M 25.31 461.19 L 50.25 321.19" fill="none" stroke="#d0d0d0" stroke-width="9" stroke-miterlimit="10" transform="translate(2,3)" opacity="1"/><path d="M 25.31 461.19 L 50.25 321.19" fill="none" stroke="#ff8000" stroke-width="9" stroke-miterlimit="10" pointer-events="none"/><path d="M 85.31 451.19 L 50.25 321.19" fill="none" stroke="#d0d0d0" stroke-width="9" stroke-miterlimit="10" transform="translate(2,3)" opacity="1"/><path d="M 85.31 451.19 L 50.25 321.19" fill="none" stroke="#ff8000" stroke-width="9" stroke-miterlimit="10" pointer-events="none"/><path d="M 5.31 341.19 L 50.25 230.83" fill="none" stroke="#d0d0d0" stroke-width="9" stroke-miterlimit="10" transform="translate(2,3)" opacity="1"/><path d="M 5.31 341.19 L 50.25 230.83" fill="none" stroke="#ff8000" stroke-width="9" stroke-miterlimit="10" pointer-events="none"/><path d="M 105.31 341.19 L 50.25 230.83" fill="none" stroke="#d0d0d0" stroke-width="9" stroke-miterlimit="10" transform="translate(2,3)" opacity="1"/><path d="M 105.31 341.19 L 50.25 230.83" fill="none" stroke="#ff8000" stroke-width="9" stroke-miterlimit="10" pointer-events="none"/><path d="M 25.31 181.19 L 45.83 174.36 Q 55.31 171.19 64.26 175.66 L 75.31 181.19" fill="none" stroke="#d0d0d0" stroke-width="3" stroke-miterlimit="10" transform="translate(2,3)" opacity="1"/><path d="M 25.31 181.19 L 45.83 174.36 Q 55.31 171.19 64.26 175.66 L 75.31 181.19" fill="none" stroke="#ff8000" stroke-width="3" stroke-miterlimit="10" pointer-events="none"/><path d="M 25.31 161.19 L 45.31 141.19" fill="none" stroke="#d0d0d0" stroke-width="3" stroke-miterlimit="10" transform="translate(2,3)" opacity="1"/><path d="M 25.31 161.19 L 45.31 141.19" fill="none" stroke="#ff8000" stroke-width="3" stroke-miterlimit="10" pointer-events="none"/><path d="M 25.31 141.19 L 45.31 161.19" fill="none" stroke="#d0d0d0" stroke-width="3" stroke-miterlimit="10" transform="translate(2,3)" opacity="1"/><path d="M 25.31 141.19 L 45.31 161.19" fill="none" stroke="#ff8000" stroke-width="3" stroke-miterlimit="10" pointer-events="none"/><path d="M 55.31 161.19 L 75.31 141.19" fill="none" stroke="#d0d0d0" stroke-width="3" stroke-miterlimit="10" transform="translate(2,3)" opacity="1"/><path d="M 55.31 161.19 L 75.31 141.19" fill="none" stroke="#ff8000" stroke-width="3" stroke-miterlimit="10" pointer-events="none"/><path d="M 55.31 141.19 L 75.31 161.19" fill="none" stroke="#d0d0d0" stroke-width="3" stroke-miterlimit="10" transform="translate(2,3)" opacity="1"/><path d="M 55.31 141.19 L 75.31 161.19" fill="none" stroke="#ff8000" stroke-width="3" stroke-miterlimit="10" pointer-events="none"/></g></svg>