<?xml version="1.0" encoding="UTF-8" standalone="no"?>
<svg
   xmlns:dc="http://purl.org/dc/elements/1.1/"
   xmlns:cc="http://creativecommons.org/ns#"
   xmlns:rdf="http://www.w3.org/1999/02/22-rdf-syntax-ns#"
   xmlns:svg="http://www.w3.org/2000/svg"
   xmlns="http://www.w3.org/2000/svg"
   xmlns:sodipodi="http://sodipodi.sourceforge.net/DTD/sodipodi-0.dtd"
   xmlns:inkscape="http://www.inkscape.org/namespaces/inkscape"
   width="430px"
   height="607px"
   version="1.1"
   id="svg2"
   inkscape:version="0.48.5 r10040"
   sodipodi:docname="hangman05.svg">
  <metadata
     id="metadata75">
    <rdf:RDF>
      <cc:Work
         rdf:about="">
        <dc:format>image/svg+xml</dc:format>
        <dc:type
           rdf:resource="http://purl.org/dc/dcmitype/StillImage" />
        <dc:title></dc:title>
      </cc:Work>
    </rdf:RDF>
  </metadata>
  <sodipodi:namedview
     pagecolor="#ffffff"
     bordercolor="#666666"
     borderopacity="1"
     objecttolerance="10"
     gridtolerance="10"
     guidetolerance="10"
     inkscape:pageopacity="0"
     inkscape:pageshadow="2"
     inkscape:window-width="1680"
     inkscape:window-height="999"
     id="namedview73"
     showgrid="false"
     inkscape:zoom="0.38879736"
     inkscape:cx="215"
     inkscape:cy="303.5"
     inkscape:window-x="0"
     inkscape:window-y="22"
     inkscape:window-maximized="1"
     inkscape:current-layer="svg2" />
  <defs
     id="defs4">
    <linearGradient
       x1="5.5"
       y1="116.5"
       x2="5.5"
       y2="205.5"
       id="mx-gradient-ffcd28-1-ffa500-1-s-0"
       gradientUnits="userSpaceOnUse">
      <stop
         offset="0%"
         style="stop-color:#FFCD28"
         id="stop7" />
      <stop
         offset="100%"
         style="stop-color:#FFA500"
         id="stop9" />
    </linearGradient>
  </defs>
  <g
     transform="matrix(-1,0,0,1,429.62,0.5)"
     id="g11">
    <path
       d="m 110.31,301.19 580,0"
       stroke-miterlimit="10"
       transform="matrix(0,1,-1,0,703.5,-96.12)"
       id="path13"
       inkscape:connector-curvature="0"
       style="fill:none;stroke:#d0d0d0;stroke-width:22;stroke-miterlimit:10" />
    <path
       d="m 110.31,301.19 580,0"
       stroke-miterlimit="10"
       transform="matrix(0,1,-1,0,701.5,-99.12)"
       pointer-events="none"
       id="path15"
       inkscape:connector-curvature="0"
       style="fill:none;stroke:#ff8000;stroke-width:22;stroke-miterlimit:10" />
    <path
       d="m 35.31,21.19 380,0"
       stroke-miterlimit="10"
       transform="translate(2,3)"
       id="path17"
       inkscape:connector-curvature="0"
       style="fill:none;stroke:#d0d0d0;stroke-width:22;stroke-miterlimit:10" />
    <path
       d="m 35.31,21.19 380,0"
       stroke-miterlimit="10"
       pointer-events="none"
       id="path19"
       inkscape:connector-curvature="0"
       style="fill:none;stroke:#ff8000;stroke-width:22;stroke-miterlimit:10" />
    <path
       d="m 301.31,58.19 110,0"
       stroke-miterlimit="10"
       transform="matrix(-0.7193398,-0.69465837,0.69465837,-0.7193398,574.19579,350.56211)"
       id="path21"
       inkscape:connector-curvature="0"
       style="fill:none;stroke:#d0d0d0;stroke-width:22;stroke-miterlimit:10" />
    <path
       d="m 301.31,58.19 110,0"
       stroke-miterlimit="10"
       transform="matrix(-0.7193398,-0.69465837,0.69465837,-0.7193398,572.19579,347.56211)"
       pointer-events="none"
       id="path23"
       inkscape:connector-curvature="0"
       style="fill:none;stroke:#ff8000;stroke-width:22;stroke-miterlimit:10" />
    <path
       d="m 0.31,71.19 100,0"
       stroke-miterlimit="10"
       transform="matrix(0,1,-1,0,123.5,23.88)"
       id="path25"
       inkscape:connector-curvature="0"
       style="fill:none;stroke:#d0d0d0;stroke-width:9;stroke-miterlimit:10" />
    <path
       d="m 0.31,71.19 100,0"
       stroke-miterlimit="10"
       transform="matrix(0,1,-1,0,121.5,20.88)"
       pointer-events="none"
       id="path27"
       inkscape:connector-curvature="0"
       style="fill:none;stroke:#ff8000;stroke-width:9;stroke-miterlimit:10" />
    <ellipse
       cx="50"
       cy="161"
       rx="40"
       ry="40"
       transform="translate(2,3)"
       id="ellipse29"
       d="m 90,161 c 0,22.09139 -17.90861,40 -40,40 -22.09139,0 -40,-17.90861 -40,-40 0,-22.09139 17.90861,-40 40,-40 22.09139,0 40,17.90861 40,40 z"
       sodipodi:cx="50"
       sodipodi:cy="161"
       sodipodi:rx="40"
       sodipodi:ry="40"
       style="fill:#d0d0d0;stroke:#d0d0d0;stroke-width:9" />
    <ellipse
       cx="50"
       cy="161"
       rx="40"
       ry="40"
       pointer-events="none"
       id="ellipse31"
       d="m 90,161 c 0,22.09139 -17.90861,40 -40,40 -22.09139,0 -40,-17.90861 -40,-40 0,-22.09139 17.90861,-40 40,-40 22.09139,0 40,17.90861 40,40 z"
       style="fill:url(#mx-gradient-ffcd28-1-ffa500-1-s-0);stroke:#ff8000;stroke-width:9"
       sodipodi:cx="50"
       sodipodi:cy="161"
       sodipodi:rx="40"
       sodipodi:ry="40" />
    <path
       d="m -9.69,261.19 120,0"
       stroke-miterlimit="10"
       transform="matrix(0,1,-1,0,313.5,213.88)"
       id="path33"
       inkscape:connector-curvature="0"
       style="fill:none;stroke:#d0d0d0;stroke-width:9;stroke-miterlimit:10" />
    <path
       d="m -9.69,261.19 120,0"
       stroke-miterlimit="10"
       transform="matrix(0,1,-1,0,311.5,210.88)"
       pointer-events="none"
       id="path35"
       inkscape:connector-curvature="0"
       style="fill:none;stroke:#ff8000;stroke-width:9;stroke-miterlimit:10" />
    <path
       d="m 25.31,461.19 24.94,-140"
       stroke-miterlimit="10"
       transform="translate(2,3)"
       id="path37"
       inkscape:connector-curvature="0"
       style="fill:none;stroke:#d0d0d0;stroke-width:9;stroke-miterlimit:10" />
    <path
       d="m 25.31,461.19 24.94,-140"
       stroke-miterlimit="10"
       pointer-events="none"
       id="path39"
       inkscape:connector-curvature="0"
       style="fill:none;stroke:#ff8000;stroke-width:9;stroke-miterlimit:10" />
    <path
       d="m 85.31,451.19 -35.06,-130"
       stroke-miterlimit="10"
       transform="translate(2,3)"
       id="path41"
       inkscape:connector-curvature="0"
       style="fill:none;stroke:#d0d0d0;stroke-width:9;stroke-miterlimit:10" />
    <path
       d="m 85.31,451.19 -35.06,-130"
       stroke-miterlimit="10"
       pointer-events="none"
       id="path43"
       inkscape:connector-curvature="0"
       style="fill:none;stroke:#ff8000;stroke-width:9;stroke-miterlimit:10" />
    <path
       d="M 5.31,341.19 50.25,230.83"
       stroke-miterlimit="10"
       transform="translate(2,3)"
       id="path45"
       inkscape:connector-curvature="0"
       style="fill:none;stroke:#d0d0d0;stroke-width:9;stroke-miterlimit:10" />
    <path
       d="M 5.31,341.19 50.25,230.83"
       stroke-miterlimit="10"
       pointer-events="none"
       id="path47"
       inkscape:connector-curvature="0"
       style="fill:none;stroke:#ff8000;stroke-width:9;stroke-miterlimit:10" />
    <path
       d="M 105.31,341.19 50.25,230.83"
       stroke-miterlimit="10"
       transform="translate(2,3)"
       id="path49"
       inkscape:connector-curvature="0"
       style="fill:none;stroke:#d0d0d0;stroke-width:9;stroke-miterlimit:10" />
    <path
       d="M 105.31,341.19 50.25,230.83"
       stroke-miterlimit="10"
       pointer-events="none"
       id="path51"
       inkscape:connector-curvature="0"
       style="fill:none;stroke:#ff8000;stroke-width:9;stroke-miterlimit:10" />
    <path
       d="m 25.31,181.19 20.52,-6.83 q 9.48,-3.17 18.43,1.3 l 11.05,5.53"
       stroke-miterlimit="10"
       transform="translate(2,3)"
       id="path53"
       inkscape:connector-curvature="0"
       style="fill:none;stroke:#d0d0d0;stroke-width:3;stroke-miterlimit:10" />
    <path
       d="m 25.31,181.19 20.52,-6.83 q 9.48,-3.17 18.43,1.3 l 11.05,5.53"
       stroke-miterlimit="10"
       pointer-events="none"
       id="path55"
       inkscape:connector-curvature="0"
       style="fill:none;stroke:#ff8000;stroke-width:3;stroke-miterlimit:10" />
    <path
       d="m 25.31,161.19 20,-20"
       stroke-miterlimit="10"
       transform="translate(2,3)"
       id="path57"
       inkscape:connector-curvature="0"
       style="fill:none;stroke:#d0d0d0;stroke-width:3;stroke-miterlimit:10" />
    <path
       d="m 25.31,161.19 20,-20"
       stroke-miterlimit="10"
       pointer-events="none"
       id="path59"
       inkscape:connector-curvature="0"
       style="fill:none;stroke:#ff8000;stroke-width:3;stroke-miterlimit:10" />
    <path
       d="m 25.31,141.19 20,20"
       stroke-miterlimit="10"
       transform="translate(2,3)"
       id="path61"
       inkscape:connector-curvature="0"
       style="fill:none;stroke:#d0d0d0;stroke-width:3;stroke-miterlimit:10" />
    <path
       d="m 25.31,141.19 20,20"
       stroke-miterlimit="10"
       pointer-events="none"
       id="path63"
       inkscape:connector-curvature="0"
       style="fill:none;stroke:#ff8000;stroke-width:3;stroke-miterlimit:10" />
    <path
       d="m 55.31,161.19 20,-20"
       stroke-miterlimit="10"
       transform="translate(2,3)"
       id="path65"
       inkscape:connector-curvature="0"
       style="fill:none;stroke:#d0d0d0;stroke-width:3;stroke-miterlimit:10" />
    <path
       d="m 55.31,161.19 20,-20"
       stroke-miterlimit="10"
       pointer-events="none"
       id="path67"
       inkscape:connector-curvature="0"
       style="fill:none;stroke:#ff8000;stroke-width:3;stroke-miterlimit:10" />
    <path
       d="m 55.31,141.19 20,20"
       stroke-miterlimit="10"
       transform="translate(2,3)"
       id="path69"
       inkscape:connector-curvature="0"
       style="fill:none;stroke:#d0d0d0;stroke-width:3;stroke-miterlimit:10" />
    <path
       d="m 55.31,141.19 20,20"
       stroke-miterlimit="10"
       pointer-events="none"
       id="path71"
       inkscape:connector-curvature="0"
       style="fill:none;stroke:#ff8000;stroke-width:3;stroke-miterlimit:10" />
  </g>
</svg>
