<?xml version="1.0" encoding="UTF-8" standalone="no"?>
<svg
   xmlns:dc="http://purl.org/dc/elements/1.1/"
   xmlns:cc="http://creativecommons.org/ns#"
   xmlns:rdf="http://www.w3.org/1999/02/22-rdf-syntax-ns#"
   xmlns:svg="http://www.w3.org/2000/svg"
   xmlns="http://www.w3.org/2000/svg"
   xmlns:sodipodi="http://sodipodi.sourceforge.net/DTD/sodipodi-0.dtd"
   xmlns:inkscape="http://www.inkscape.org/namespaces/inkscape"
   width="468px"
   height="604px"
   version="1.1"
   id="svg2"
   inkscape:version="0.48.4 r9939"
   sodipodi:docname="hangman1.svg">
  <metadata
     id="metadata39">
    <rdf:RDF>
      <cc:Work
         rdf:about="">
        <dc:format>image/svg+xml</dc:format>
        <dc:type
           rdf:resource="http://purl.org/dc/dcmitype/StillImage" />
        <dc:title></dc:title>
      </cc:Work>
    </rdf:RDF>
  </metadata>
  <sodipodi:namedview
     pagecolor="#ffffff"
     bordercolor="#666666"
     borderopacity="1"
     objecttolerance="10"
     gridtolerance="10"
     guidetolerance="10"
     inkscape:pageopacity="0"
     inkscape:pageshadow="2"
     inkscape:window-width="1299"
     inkscape:window-height="716"
     id="namedview37"
     showgrid="false"
     inkscape:zoom="1"
     inkscape:cx="274"
     inkscape:cy="422"
     inkscape:window-x="67"
     inkscape:window-y="22"
     inkscape:window-maximized="1"
     inkscape:current-layer="svg2" />
  <defs
     id="defs4">
    <linearGradient
       x1="0%"
       y1="0%"
       x2="0%"
       y2="100%"
       id="mx-gradient-ffcd28-1-ffa500-1-s-0">
      <stop
         offset="0%"
         style="stop-color:#FFCD28"
         id="stop7" />
      <stop
         offset="100%"
         style="stop-color:#FFA500"
         id="stop9" />
    </linearGradient>
    <linearGradient
       gradientUnits="userSpaceOnUse"
       x1="0.5"
       y1="117.5"
       x2="0.5"
       y2="206.5"
       id="mx-gradient-ffcd28-1-ffa500-1-s-0-4">
      <stop
         offset="0%"
         style="stop-color:#FFCD28"
         id="stop7-6" />
      <stop
         offset="100%"
         style="stop-color:#FFA500"
         id="stop9-0" />
    </linearGradient>
    <linearGradient
       gradientUnits="userSpaceOnUse"
       x1="0.5"
       y1="117.5"
       x2="0.5"
       y2="206.5"
       id="mx-gradient-ffcd28-1-ffa500-1-s-0-8">
      <stop
         offset="0%"
         style="stop-color:#FFCD28"
         id="stop7-8" />
      <stop
         offset="100%"
         style="stop-color:#FFA500"
         id="stop9-8" />
    </linearGradient>
  </defs>
  <g
     transform="translate(64.27119,0.016949)"
     id="g6">
    <path
       style="fill:none;stroke:#dede00;stroke-width:22;stroke-miterlimit:10"
       inkscape:connector-curvature="0"
       d="m 87,302 580,0"
       stroke-miterlimit="10"
       transform="matrix(0,1,-1,0,679,-75)"
       pointer-events="none"
       id="path8" />
    <path
       style="fill:none;stroke:#dede00;stroke-width:22;stroke-miterlimit:10"
       inkscape:connector-curvature="0"
       d="m 12,22 380,0"
       stroke-miterlimit="10"
       pointer-events="none"
       id="path10" />
    <path
       style="fill:none;stroke:#dede00;stroke-width:22;stroke-miterlimit:10"
       inkscape:connector-curvature="0"
       d="m 278,59 110,0"
       stroke-miterlimit="10"
       transform="matrix(-0.7193398,-0.69465837,0.69465837,-0.7193398,531.55531,332.76229)"
       pointer-events="none"
       id="path12" />
    <path
       style="fill:none;stroke:#dede00;stroke-width:9;stroke-miterlimit:10"
       inkscape:connector-curvature="0"
       d="M -23,72 77,72"
       stroke-miterlimit="10"
       transform="matrix(0,1,-1,0,99,45)"
       pointer-events="none"
       id="path14" />
  </g>
  <g
     transform="translate(46.25,1)"
     id="g11">
    <path
       style="fill:none;stroke:#dede00;stroke-width:22;stroke-miterlimit:10"
       inkscape:connector-curvature="0"
       d="m 105,302 580,0"
       stroke-miterlimit="10"
       transform="matrix(0,1,-1,0,697,-93)"
       pointer-events="none"
       id="path13" />
    <path
       style="fill:none;stroke:#dede00;stroke-width:22;stroke-miterlimit:10"
       inkscape:connector-curvature="0"
       d="m 30,22 380,0"
       stroke-miterlimit="10"
       pointer-events="none"
       id="path15" />
    <path
       style="fill:none;stroke:#dede00;stroke-width:22;stroke-miterlimit:10"
       inkscape:connector-curvature="0"
       d="m 296,59 110,0"
       stroke-miterlimit="10"
       transform="matrix(-0.7193398,-0.69465837,0.69465837,-0.7193398,562.50343,345.26614)"
       pointer-events="none"
       id="path17" />
    <path
       style="fill:none;stroke:#dede00;stroke-width:9;stroke-miterlimit:10"
       inkscape:connector-curvature="0"
       d="M -5,72 95,72"
       stroke-miterlimit="10"
       transform="matrix(0,1,-1,0,117,27)"
       pointer-events="none"
       id="path19" />
    <ellipse
       style="fill:url(#mx-gradient-ffcd28-1-ffa500-1-s-0-8);stroke:#dede00;stroke-width:9"
       sodipodi:ry="40"
       sodipodi:rx="40"
       sodipodi:cy="162"
       sodipodi:cx="45"
       cx="45"
       cy="162"
       rx="40"
       ry="40"
       pointer-events="none"
       id="ellipse21"
       d="m 85,162 c 0,22.09139 -17.90861,40 -40,40 -22.09139,0 -40,-17.90861 -40,-40 0,-22.09139 17.90861,-40 40,-40 22.09139,0 40,17.90861 40,40 z" />
    <path
       style="fill:none;stroke:#dede00;stroke-width:9;stroke-miterlimit:10"
       inkscape:connector-curvature="0"
       d="m -15,262 120,0"
       stroke-miterlimit="10"
       transform="matrix(0,1,-1,0,307,217)"
       pointer-events="none"
       id="path23" />
    <path
       style="fill:none;stroke:#dede00;stroke-width:9;stroke-miterlimit:10"
       inkscape:connector-curvature="0"
       d="M 100,282 45,232"
       stroke-miterlimit="10"
       pointer-events="none"
       id="path25" />
    <path
       style="fill:none;stroke:#dede00;stroke-width:3;stroke-miterlimit:10"
       inkscape:connector-curvature="0"
       d="m 45,192 0,-5 q 0,-5 5,0 l 5,5"
       stroke-miterlimit="10"
       pointer-events="none"
       id="path27" />
    <ellipse
       style="fill:#ffffff;stroke:#dede00;stroke-width:3"
       sodipodi:ry="10"
       sodipodi:rx="10"
       sodipodi:cy="162"
       sodipodi:cx="35"
       cx="35"
       cy="162"
       rx="10"
       ry="10"
       pointer-events="none"
       id="ellipse29"
       d="m 45,162 c 0,5.52285 -4.477153,10 -10,10 -5.522847,0 -10,-4.47715 -10,-10 0,-5.52285 4.477153,-10 10,-10 5.522847,0 10,4.47715 10,10 z" />
    <path
       style="fill:none;stroke:#dede00;stroke-width:3;stroke-miterlimit:10"
       inkscape:connector-curvature="0"
       d="m 45,192 10,0"
       stroke-miterlimit="10"
       pointer-events="none"
       id="path31" />
    <ellipse
       style="fill:#ffffff;stroke:#dede00;stroke-width:3"
       sodipodi:ry="10"
       sodipodi:rx="10"
       sodipodi:cy="162"
       sodipodi:cx="60"
       cx="60"
       cy="162"
       rx="10"
       ry="10"
       pointer-events="none"
       id="ellipse33"
       d="m 70,162 c 0,5.52285 -4.477153,10 -10,10 -5.522847,0 -10,-4.47715 -10,-10 0,-5.52285 4.477153,-10 10,-10 5.522847,0 10,4.47715 10,10 z" />
  </g>
</svg>
