<?xml version="1.0" encoding="UTF-8"?>
<!DOCTYPE svg PUBLIC "-//W3C//DTD SVG 1.1//EN" "http://www.w3.org/Graphics/SVG/1.1/DTD/svg11.dtd">
<svg xmlns="http://www.w3.org/2000/svg" xmlns:xlink="http://www.w3.org/1999/xlink" width="468px" height="604px" version="1.1"><defs><linearGradient x1="0%" y1="0%" x2="0%" y2="100%" id="mx-gradient-ffcd28-1-ffa500-1-s-0"><stop offset="0%" style="stop-color:#FFCD28"/><stop offset="100%" style="stop-color:#FFA500"/></linearGradient></defs><g transform="translate(0.5,0.5)"><path d="M 150 302 L 730 302" fill="none" stroke="#dede00" stroke-width="22" stroke-miterlimit="10" transform="rotate(90,440,302)" pointer-events="none"/><path d="M 75 22 L 455 22" fill="none" stroke="#dede00" stroke-width="22" stroke-miterlimit="10" pointer-events="none"/><path d="M 341 59 L 451 59" fill="none" stroke="#dede00" stroke-width="22" stroke-miterlimit="10" transform="rotate(224,396,59)" pointer-events="none"/><path d="M 40 72 L 140 72" fill="none" stroke="#dede00" stroke-width="9" stroke-miterlimit="10" transform="rotate(90,90,72)" pointer-events="none"/><ellipse cx="90" cy="162" rx="40" ry="40" fill="url(#mx-gradient-ffcd28-1-ffa500-1-s-0)" stroke="#dede00" stroke-width="9" pointer-events="none"/><path d="M 30 262 L 150 262" fill="none" stroke="#dede00" stroke-width="9" stroke-miterlimit="10" transform="rotate(90,90,262)" pointer-events="none"/><path d="M 5 182 L 90 232" fill="none" stroke="#dede00" stroke-width="9" stroke-miterlimit="10" pointer-events="none"/><path d="M 165 272 L 90 232" fill="none" stroke="#dede00" stroke-width="9" stroke-miterlimit="10" pointer-events="none"/><path d="M 65 182 L 76.06 176.47 Q 85 172 94.49 175.16 L 115 182" fill="none" stroke="#dede00" stroke-width="3" stroke-miterlimit="10" pointer-events="none"/><ellipse cx="75" cy="152" rx="10" ry="10" fill="#ffffff" stroke="#dede00" stroke-width="3" pointer-events="none"/><path d="M 65 182 L 115 182" fill="none" stroke="#dede00" stroke-width="3" stroke-miterlimit="10" pointer-events="none"/><ellipse cx="105" cy="152" rx="10" ry="10" fill="#ffffff" stroke="#dede00" stroke-width="3" pointer-events="none"/></g></svg>