<?xml version="1.0" encoding="UTF-8" standalone="no"?>
<svg
   xmlns:dc="http://purl.org/dc/elements/1.1/"
   xmlns:cc="http://creativecommons.org/ns#"
   xmlns:rdf="http://www.w3.org/1999/02/22-rdf-syntax-ns#"
   xmlns:svg="http://www.w3.org/2000/svg"
   xmlns="http://www.w3.org/2000/svg"
   xmlns:sodipodi="http://sodipodi.sourceforge.net/DTD/sodipodi-0.dtd"
   xmlns:inkscape="http://www.inkscape.org/namespaces/inkscape"
   width="468px"
   height="604px"
   version="1.1"
   id="svg2"
   inkscape:version="0.48.4 r9939"
   sodipodi:docname="hangman0L.svg">
  <metadata
     id="metadata39">
    <rdf:RDF>
      <cc:Work
         rdf:about="">
        <dc:format>image/svg+xml</dc:format>
        <dc:type
           rdf:resource="http://purl.org/dc/dcmitype/StillImage" />
        <dc:title />
      </cc:Work>
    </rdf:RDF>
  </metadata>
  <sodipodi:namedview
     pagecolor="#ffffff"
     bordercolor="#666666"
     borderopacity="1"
     objecttolerance="10"
     gridtolerance="10"
     guidetolerance="10"
     inkscape:pageopacity="0"
     inkscape:pageshadow="2"
     inkscape:window-width="1299"
     inkscape:window-height="716"
     id="namedview37"
     showgrid="false"
     inkscape:zoom="1"
     inkscape:cx="29.254237"
     inkscape:cy="377.25424"
     inkscape:window-x="67"
     inkscape:window-y="22"
     inkscape:window-maximized="1"
     inkscape:current-layer="svg2" />
  <defs
     id="defs4">
    <linearGradient
       x1="45.5"
       y1="117.5"
       x2="45.5"
       y2="206.5"
       id="mx-gradient-ffcd28-1-ffa500-1-s-0"
       gradientUnits="userSpaceOnUse">
      <stop
         offset="0%"
         style="stop-color:#FFCD28"
         id="stop7" />
      <stop
         offset="100%"
         style="stop-color:#FFA500"
         id="stop9" />
    </linearGradient>
  </defs>
  <g
     transform="matrix(-1,0,0,1,403.30509,0.237288)"
     id="g6">
    <path
       style="fill:none;stroke:#dede00;stroke-width:22;stroke-miterlimit:10"
       inkscape:connector-curvature="0"
       d="m 87,302 580,0"
       stroke-miterlimit="10"
       transform="matrix(0,1,-1,0,679,-75)"
       pointer-events="none"
       id="path8" />
    <path
       style="fill:none;stroke:#dede00;stroke-width:22;stroke-miterlimit:10"
       inkscape:connector-curvature="0"
       d="m 12,22 380,0"
       stroke-miterlimit="10"
       pointer-events="none"
       id="path10" />
    <path
       style="fill:none;stroke:#dede00;stroke-width:22;stroke-miterlimit:10"
       inkscape:connector-curvature="0"
       d="m 278,59 110,0"
       stroke-miterlimit="10"
       transform="matrix(-0.7193398,-0.69465837,0.69465837,-0.7193398,531.55531,332.76229)"
       pointer-events="none"
       id="path12" />
    <path
       style="fill:none;stroke:#dede00;stroke-width:9;stroke-miterlimit:10"
       inkscape:connector-curvature="0"
       d="M -23,72 77,72"
       stroke-miterlimit="10"
       transform="matrix(0,1,-1,0,99,45)"
       pointer-events="none"
       id="path14" />
  </g>
  <path
     style="fill:#800000"
     d="m 15.854237,312.44576 c 0,-278.833333 -0.0048,-279.5 -2,-279.5 -1.873016,0 -2,-0.666667 -2,-10.5 l 0,-10.5 189.500003,0 189.5,0 0,10.5 0,10.5 -5.5,0 -5.5,0 0,44.5 0,44.5 -4,0 -4,0 0,-44.5 0,-44.5 -129.75,0.03387 -129.75,0.03387 -37.000003,35.846567 c -20.35,19.715618 -37.3375,35.648813 -37.75,35.407113 -0.4125,-0.2417 -0.75,109.3871 -0.75,243.61956 l 0,244.05902 -10.5,0 -10.5,0 0,-279.5 z m 66,-279.183309 c 0,-0.17418 -10.125,-0.316691 -22.5,-0.316691 l -22.5,0 0,22.083832 0,22.083832 22.5,-21.767141 c 12.375,-11.971927 22.5,-21.909651 22.5,-22.083832 z"
     id="path2989"
     inkscape:connector-curvature="0" />
</svg>
