<?xml version="1.0" encoding="UTF-8" standalone="no"?>
<svg
   xmlns:dc="http://purl.org/dc/elements/1.1/"
   xmlns:cc="http://creativecommons.org/ns#"
   xmlns:rdf="http://www.w3.org/1999/02/22-rdf-syntax-ns#"
   xmlns:svg="http://www.w3.org/2000/svg"
   xmlns="http://www.w3.org/2000/svg"
   xmlns:sodipodi="http://sodipodi.sourceforge.net/DTD/sodipodi-0.dtd"
   xmlns:inkscape="http://www.inkscape.org/namespaces/inkscape"
   width="468px"
   height="604px"
   version="1.1"
   id="svg2"
   inkscape:version="0.48.4 r9939"
   sodipodi:docname="hangman3L.svg">
  <metadata
     id="metadata39">
    <rdf:RDF>
      <cc:Work
         rdf:about="">
        <dc:format>image/svg+xml</dc:format>
        <dc:type
           rdf:resource="http://purl.org/dc/dcmitype/StillImage" />
      </cc:Work>
    </rdf:RDF>
  </metadata>
  <sodipodi:namedview
     pagecolor="#ffffff"
     bordercolor="#666666"
     borderopacity="1"
     objecttolerance="10"
     gridtolerance="10"
     guidetolerance="10"
     inkscape:pageopacity="0"
     inkscape:pageshadow="2"
     inkscape:window-width="1299"
     inkscape:window-height="716"
     id="namedview37"
     showgrid="false"
     inkscape:zoom="6.2516556"
     inkscape:cx="93.23729"
     inkscape:cy="39.669493"
     inkscape:window-x="67"
     inkscape:window-y="22"
     inkscape:window-maximized="1"
     inkscape:current-layer="svg2" />
  <defs
     id="defs4">
    <linearGradient
       x1="45.5"
       y1="117.5"
       x2="45.5"
       y2="206.5"
       id="mx-gradient-ffcd28-1-ffa500-1-s-0"
       gradientUnits="userSpaceOnUse">
      <stop
         offset="0%"
         style="stop-color:#FFCD28"
         id="stop7" />
      <stop
         offset="100%"
         style="stop-color:#FFA500"
         id="stop9" />
    </linearGradient>
  </defs>
  <g
     transform="matrix(-1,0,0,1,467,0.5)"
     id="g11">
    <path
       d="m 150,302 580,0"
       stroke-miterlimit="10"
       transform="matrix(0,1,-1,0,742,-138)"
       pointer-events="none"
       id="path13"
       inkscape:connector-curvature="0"
       style="fill:none;stroke:#dede00;stroke-width:22;stroke-miterlimit:10" />
    <path
       d="m 75,22 380,0"
       stroke-miterlimit="10"
       pointer-events="none"
       id="path15"
       inkscape:connector-curvature="0"
       style="fill:none;stroke:#dede00;stroke-width:22;stroke-miterlimit:10" />
    <path
       d="m 341,59 110,0"
       stroke-miterlimit="10"
       transform="matrix(-0.7193398,-0.69465837,0.69465837,-0.7193398,639.87372,376.52576)"
       pointer-events="none"
       id="path17"
       inkscape:connector-curvature="0"
       style="fill:none;stroke:#dede00;stroke-width:22;stroke-miterlimit:10" />
    <path
       d="m 40,72 100,0"
       stroke-miterlimit="10"
       transform="matrix(0,1,-1,0,162,-18)"
       pointer-events="none"
       id="path19"
       inkscape:connector-curvature="0"
       style="fill:none;stroke:#dede00;stroke-width:9;stroke-miterlimit:10" />
    <ellipse
       cx="90"
       cy="162"
       rx="40"
       ry="40"
       pointer-events="none"
       id="ellipse21"
       d="m 130,162 c 0,22.09139 -17.90861,40 -40,40 -22.09139,0 -40,-17.90861 -40,-40 0,-22.09139 17.90861,-40 40,-40 22.09139,0 40,17.90861 40,40 z"
       style="fill:url(#mx-gradient-ffcd28-1-ffa500-1-s-0);stroke:#dede00;stroke-width:9"
       sodipodi:cx="90"
       sodipodi:cy="162"
       sodipodi:rx="40"
       sodipodi:ry="40" />
    <path
       d="m 30,262 120,0"
       stroke-miterlimit="10"
       transform="matrix(0,1,-1,0,352,172)"
       pointer-events="none"
       id="path23"
       inkscape:connector-curvature="0"
       style="fill:none;stroke:#dede00;stroke-width:9;stroke-miterlimit:10" />
    <path
       d="m 5,182 85,50"
       stroke-miterlimit="10"
       pointer-events="none"
       id="path25"
       inkscape:connector-curvature="0"
       style="fill:none;stroke:#dede00;stroke-width:9;stroke-miterlimit:10" />
    <path
       d="M 165,272 90,232"
       stroke-miterlimit="10"
       pointer-events="none"
       id="path27"
       inkscape:connector-curvature="0"
       style="fill:none;stroke:#dede00;stroke-width:9;stroke-miterlimit:10" />
    <path
       d="m 65,182 11.06,-5.53 Q 85,172 94.49,175.16 L 115,182"
       stroke-miterlimit="10"
       pointer-events="none"
       id="path29"
       inkscape:connector-curvature="0"
       style="fill:none;stroke:#dede00;stroke-width:3;stroke-miterlimit:10" />
    <ellipse
       cx="75"
       cy="152"
       rx="10"
       ry="10"
       pointer-events="none"
       id="ellipse31"
       d="m 85,152 c 0,5.52285 -4.477153,10 -10,10 -5.522847,0 -10,-4.47715 -10,-10 0,-5.52285 4.477153,-10 10,-10 5.522847,0 10,4.47715 10,10 z"
       sodipodi:cx="75"
       sodipodi:cy="152"
       sodipodi:rx="10"
       sodipodi:ry="10"
       style="fill:#ffffff;stroke:#dede00;stroke-width:3" />
    <path
       d="m 65,182 50,0"
       stroke-miterlimit="10"
       pointer-events="none"
       id="path33"
       inkscape:connector-curvature="0"
       style="fill:none;stroke:#dede00;stroke-width:3;stroke-miterlimit:10" />
    <ellipse
       cx="105"
       cy="152"
       rx="10"
       ry="10"
       pointer-events="none"
       id="ellipse35"
       d="m 115,152 c 0,5.52285 -4.47715,10 -10,10 -5.522847,0 -10,-4.47715 -10,-10 0,-5.52285 4.477153,-10 10,-10 5.52285,0 10,4.47715 10,10 z"
       sodipodi:cx="105"
       sodipodi:cy="152"
       sodipodi:rx="10"
       sodipodi:ry="10"
       style="fill:#ffffff;stroke:#dede00;stroke-width:3" />
  </g>
  <path
     style="fill:#800000"
     d="m 17.993222,311.46949 c 0,-185.12429 -0.868689,-280.245764 -2.559322,-280.245764 -1.407627,0 -2.559322,-4.030932 -2.559322,-8.957627 l 0,-8.957627 189.389832,0 189.38983,0 0,8.957627 c 0,7.251413 -0.97497,8.957627 -5.11864,8.957627 -4.92225,0 -5.11865,1.706215 -5.11865,44.468221 l 0,44.468223 7.32063,1.46412 c 9.81401,1.9628 23.28382,13.64948 27.57821,23.9274 9.03781,21.63048 0.19681,44.23929 -21.34623,54.58729 -12.53059,6.019 -13.32713,6.9726 -13.43644,16.08581 -0.13616,11.34478 -4.67732,12.94112 42.30782,-14.87199 18.61569,-11.01967 34.31173,-18.71147 36.48285,-17.87834 2.39345,0.91846 -11.33206,10.36276 -36.90834,25.396 l -40.71884,23.93376 -0.70025,43.81145 c -0.58517,36.60964 -1.32141,43.81145 -4.47882,43.81145 -3.17443,0 -3.77856,-6.54721 -3.77856,-40.94916 0,-22.52203 -0.35584,-40.94915 -0.7908,-40.94915 -0.43493,0 -15.64473,7.98289 -33.79956,17.73975 -18.15481,9.75686 -34.02304,17.11289 -35.2627,16.34674 -3.60129,-2.22572 0.20936,-4.7658 35.36925,-23.576 l 33.20415,-17.76391 0.75831,-12.56828 0.7583,-12.56828 -10.11841,-3.03154 C 344.56837,197.32812 330.60481,173.47115 335.06883,153.9213 339.0141,136.6431 354.90145,120.8 368.28259,120.8 c 5.36111,0 5.45639,-0.78211 5.45639,-44.788138 l 0,-44.788136 -129.46476,0 -129.46476,0 -39.175202,36.470339 -39.175197,36.470335 -0.275294,243.77543 -0.275291,243.77542 -8.957627,0 -8.957627,0 0,-280.24576 z M 396.61474,192.68297 c 11.06444,-7.76123 15.94064,-16.62771 15.94064,-28.98518 0,-25.18282 -18.58309,-41.18434 -42.59687,-36.67932 -18.77757,3.52269 -32.16538,23.60631 -28.53168,42.8016 4.59221,24.25883 35.15047,36.91831 55.18791,22.8629 z M 62.781358,54.257625 85.708535,31.223726 l -24.900028,0 -24.900031,0 0,23.033899 c 0,12.668644 0.887783,23.033898 1.972851,23.033898 1.085068,0 12.290082,-10.365254 24.900031,-23.033898 z"
     id="path2997"
     inkscape:connector-curvature="0" />
  <path
     style="fill:#800000"
     d="m 372.63648,280.99082 -0.0812,-41.22783 -34.07098,18.18506 c -18.73903,10.00179 -34.14295,18.18672 -34.23093,18.18873 -0.088,0.002 -1.05166,-1.69271 -2.14153,-3.76605 l -1.98157,-3.7697 32.35501,-17.25952 c 17.79526,-9.49274 34.06763,-18.17062 36.16084,-19.28419 2.97411,-1.58221 3.78136,-1.89765 3.69389,-1.44345 -0.0768,0.39876 -4.68035,3.02373 -14.66443,8.36173 -25.15482,13.44906 -42.19779,22.74471 -46.95547,25.61067 -7.23614,4.35893 -9.30498,6.57933 -7.33372,7.87094 0.9579,0.62764 1.82914,0.38175 7.84456,-2.21393 8.85102,-3.81924 16.75382,-7.82581 43.08916,-21.84535 12.09281,-6.43757 18.30137,-9.55765 18.54121,-9.31781 0.24361,0.24361 0.48474,13.03825 0.83733,44.42878 0.3539,31.50694 0.63484,35.30944 2.70915,36.66858 2.41932,1.5852 3.88705,-1.43093 4.61117,-9.47579 0.19503,-2.16668 0.25383,-1.27278 0.28937,4.39884 l 0.0446,7.11811 -4.31765,0 -4.31766,0 -0.0812,-41.22782 z"
     id="path2999"
     inkscape:connector-curvature="0" />
  <path
     style="fill:#800000"
     d="m 372.76324,214.34878 c -0.054,-8.52454 0.219,-7.72463 -2.76726,-8.10879 -0.87977,-0.11317 -2.67929,-0.48916 -3.99894,-0.83551 -19.69213,-5.16845 -33.28699,-22.73547 -33.26432,-42.98351 0.0177,-15.8304 8.38315,-30.26233 22.22724,-38.34617 4.25254,-2.48314 10.86083,-4.77162 15.77035,-5.46133 1.29234,-0.18156 1.3541,-0.15557 1.03725,0.43648 -0.62492,1.16767 -1.66455,1.62208 -3.71108,1.62208 -12.70261,0 -28.41371,15.27181 -32.75246,31.83667 -3.50605,13.38571 1.40823,29.59604 12.29789,40.56599 5.63031,5.67182 10.93456,8.64936 20.3946,11.4485 l 5.67849,1.68022 -0.0329,2.10242 c -0.0181,1.15634 -0.21242,4.69374 -0.43189,7.8609 l -0.39903,5.75848 -0.048,-7.57643 z"
     id="path3001"
     inkscape:connector-curvature="0" />
  <path
     style="fill:#800000"
     d=""
     id="path3005"
     inkscape:connector-curvature="0" />
  <path
     style="fill:#800000"
     d="m 358.83273,163.37347 c -4.49245,-1.23345 -8.19163,-6.14206 -8.19163,-10.86987 0,-4.80384 3.58597,-9.49623 8.29589,-10.85551 5.93501,-1.71286 12.10659,1.74731 13.90215,7.7944 2.49366,8.39817 -5.43517,16.28431 -14.00641,13.93098 z m 6.71678,-3.00201 c 3.05937,-1.38938 4.96633,-4.41047 4.96633,-7.86786 0,-4.96778 -3.53028,-8.51774 -8.47052,-8.51774 -3.5073,0 -6.51741,1.88869 -7.91509,4.96632 -0.8072,1.77743 -0.8072,5.3254 0,7.10284 0.76191,1.67768 2.63876,3.55453 4.31645,4.31644 1.77743,0.80721 5.3254,0.80721 7.10283,0 z"
     id="path3007"
     inkscape:connector-curvature="0" />
  <path
     style="fill:#800000"
     d="m 389.2659,163.5314 c -1.92336,-0.4833 -3.70613,-1.52556 -5.24965,-3.06908 -4.98919,-4.98919 -4.15791,-13.47905 1.6997,-17.35897 2.03293,-1.34656 3.64351,-1.78849 6.51414,-1.78742 2.97664,0.001 5.50795,1.06488 7.7343,3.25029 4.41862,4.33737 4.41862,11.53739 0,15.87476 -2.74725,2.69673 -7.17511,3.97578 -10.69849,3.09042 l 0,0 z m 6.86196,-3.44727 c 1.7561,-1.08533 2.84637,-2.31209 3.70249,-4.16604 0.6525,-1.41297 0.76472,-2.0689 0.65684,-3.83898 -0.15185,-2.49135 -0.80439,-4.0065 -2.43987,-5.66518 -1.66168,-1.68525 -3.4903,-2.42807 -5.97719,-2.42807 -4.99238,0 -8.58245,3.563 -8.58245,8.51774 0,3.51117 1.83877,6.38924 5.04247,7.89254 1.82874,0.85812 5.98025,0.68764 7.59771,-0.31201 z"
     id="path3009"
     inkscape:connector-curvature="0" />
  <path
     style="fill:#800000"
     d=""
     id="path3011"
     inkscape:connector-curvature="0" />
  <path
     style="fill:#800000"
     d="m 352.0342,182.49844 -0.31477,-1.35685 11.05777,-3.6612 c 6.08177,-2.01366 11.95491,-3.83265 13.05142,-4.04221 2.90428,-0.55503 8.66874,-0.23032 11.39041,0.64163 1.20287,0.38536 5.10542,2.14834 8.67234,3.91773 l 6.4853,3.21706 -0.36635,1.24073 -0.36634,1.24073 -24.6475,0.0796 -24.64751,0.0796 -0.31477,-1.35685 z m 43.71495,-1.51917 c 0,-0.0862 -1.30342,-0.81137 -2.8965,-1.61146 -6.45862,-3.24372 -11.53555,-4.24166 -16.47047,-3.2375 -1.40097,0.28506 -5.49844,1.51681 -9.10548,2.73722 l -6.55827,2.21891 17.51536,0.0248 c 9.63345,0.0136 17.51536,-0.0457 17.51536,-0.13196 z"
     id="path3013"
     inkscape:connector-curvature="0" />
  <path
     style="fill:#800000"
     d="m 382.96181,233.38071 c 0.007,-0.42335 5.51642,-3.8107 20.55456,-12.63704 38.76324,-22.75134 51.56412,-30.79704 55.9047,-35.13762 1.5122,-1.5122 1.63862,-2.23208 0.39111,-2.22717 -4.22884,0.0166 -18.80309,7.60209 -49.31939,25.66921 -18.2476,10.80345 -25.08857,14.56064 -25.95233,14.25347 -0.20588,-0.0732 70.73466,-42.02754 74.3981,-43.99914 0.70194,-0.37777 0.81158,-0.25932 2.66519,2.87924 1.06322,1.80026 2.01342,3.48915 2.11155,3.75308 0.13405,0.36052 -9.42485,6.12951 -38.43094,23.19386 -46.83996,27.55607 -42.33412,24.97408 -42.32255,24.25211 z"
     id="path3015"
     inkscape:connector-curvature="0" />
  <path
     style="fill:#800000"
     d="m 386.42066,204.96784 c 0.93971,-0.64566 3.96291,-2.32513 6.71822,-3.73215 5.8027,-2.9632 8.28513,-4.48925 11.43554,-7.0299 13.90181,-11.21115 18.87947,-29.29998 12.75204,-46.34096 -1.95288,-5.43115 -4.849,-9.80963 -9.72846,-14.70789 -4.09923,-4.11502 -8.02754,-6.99817 -12.64863,-9.28333 -3.18787,-1.57642 -4.51723,-2.03617 -7.83793,-2.71068 -2.19941,-0.44676 -4.32285,-0.88668 -4.71875,-0.9776 -0.51435,-0.11813 -0.71981,-0.39746 -0.71981,-0.97861 0,-0.78665 0.0498,-0.80637 1.5196,-0.6019 10.21765,1.42146 20.69805,7.15879 27.27347,14.93042 13.14256,15.5335 14.45932,36.72575 3.32802,53.56215 -6.24839,9.45085 -16.86234,16.59455 -27.96219,18.81989 -1.09831,0.22019 -1.08706,0.20205 0.58888,-0.94944 z"
     id="path3017"
     inkscape:connector-curvature="0" />
  <path
     style="fill:#800000"
     d="m 372.6395,75.012126 -0.0202,-41.548993 -111.97034,0 -111.97034,0 0,-1.119704 0,-1.119703 112.53019,0 112.5302,0 -0.009,21.154396 c -0.0117,27.132296 -0.23823,55.455078 -0.46993,58.744438 -0.0991,1.40763 -0.27476,3.20715 -0.39024,3.99894 -0.17679,1.21204 -0.21318,-5.12848 -0.23022,-40.109374 l 2e-5,0 z"
     id="path3019"
     inkscape:connector-curvature="0" />
  <path
     style="fill:#800000"
     d="m 383.38082,32.783313 c 0.60318,-1.033506 1.29935,-1.3381 3.48523,-1.524897 3.20867,-0.274201 4.00057,-0.998617 4.5527,-4.164727 0.18014,-1.033078 0.23549,-2.811515 0.23549,-7.567823 l 0,-6.217394 -121.48782,0 -121.48782,0 0,-0.879767 0,-0.879767 121.64778,0 121.64777,0 0,10.957097 0,10.957098 -4.49504,0 -4.49507,0 0.39678,-0.67982 z"
     id="path3021"
     inkscape:connector-curvature="0" />
  <path
     style="fill:#800000"
     d="m 12.07479,22.506035 0,-10.957097 68.301906,0 68.301904,0 0,0.879767 0,0.879767 -67.914539,0 -67.914543,0 0.06893,6.518273 c 0.06254,5.914473 0.09984,6.646743 0.40267,7.905157 0.46574,1.935409 1.305326,3.491824 1.883615,3.491824 0.252582,0 0.335324,0.233508 0.472892,1.334563 l 0.113053,0.904844 -1.857944,0 -1.857943,0 0,-10.957098 z"
     id="path3023"
     inkscape:connector-curvature="0" />
  <path
     style="fill:#800000"
     d="m 36.548307,113.62172 0,-9.41768 39.196009,-36.490158 39.196004,-36.490156 16.86914,0 16.86914,0 0,1.119703 0,1.119704 -17.50603,0 -17.50604,0 -35.479929,34.249765 C 58.672643,86.55027 41.898263,102.76143 40.910204,103.7377 l -1.796471,1.77504 -0.562904,-0.54559 -0.562904,-0.54559 0,9.30892 0,9.30892 -0.719809,0 -0.719809,0 0,-9.41768 z"
     id="path3025"
     inkscape:connector-curvature="0" />
  <path
     style="fill:#800000"
     d="M 37.438776,76.317918 C 36.949341,74.669809 36.542836,70.963975 36.22083,65.214722 36.132137,63.631141 36.014388,55.335339 35.959165,46.779605 l -0.100403,-15.555879 24.846272,0 24.846271,0 -8.680861,8.75768 C 57.406301,59.617795 45.836241,70.844875 40.419521,75.351788 c -1.69341,1.408981 -2.202895,1.76409 -2.545367,1.774108 -0.106563,0.0031 -0.302483,-0.360472 -0.435378,-0.807978 z M 60.142057,54.818476 c 10.38125,-10.008908 19.594371,-18.908413 20.4736,-19.776679 l 1.598601,-1.578664 -22.113167,0 -22.113166,0 0,21.391474 0,21.391476 1.639566,-1.614798 c 0.901761,-0.888138 10.133316,-9.803902 20.514566,-19.812809 z"
     id="path3027"
     inkscape:connector-curvature="0" />
  <path
     style="fill:#800000"
     d="m 16.098509,107.00365 c 0.01363,-36.972204 0.08154,-65.962525 0.150917,-64.422933 0.550987,12.227509 1.430097,89.728903 1.424776,125.606723 l -8.96e-4,6.0384 -0.799788,0 -0.799788,0 0.02478,-67.22219 z"
     id="path3029"
     inkscape:connector-curvature="0" />
  <path
     style="fill:#800000"
     d="m 36.388396,204.5778 c 2.5e-5,-11.45896 0.04795,-34.49286 0.106498,-51.18644 l 0.106452,-30.35196 0.693289,0 0.69329,0 0,51.18644 0,51.18645 -0.799788,0 -0.799788,0 4.7e-5,-20.83449 z"
     id="path3031"
     inkscape:connector-curvature="0" />
  <path
     style="fill:#800000"
     d="m 36.388349,263.80212 0,-38.38983 0.799788,0 0.799788,0 0,38.38983 0,38.38983 -0.799788,0 -0.799788,0 0,-38.38983 z"
     id="path3033"
     inkscape:connector-curvature="0" />
  <path
     style="fill:#800000"
     d="m 16.07373,238.2089 0,-63.98306 0.773515,0 0.773516,0 0.106123,10.91711 c 0.05837,6.00441 0.106181,34.79679 0.106252,63.98305 l 1.28e-4,53.06595 -0.879767,0 -0.879767,0 0,-63.98305 z"
     id="path3035"
     inkscape:connector-curvature="0" />
  <path
     style="fill:#800000"
     d="m 36.228976,355.65778 c 3.22e-4,-26.89887 0.04751,-49.93277 0.104861,-51.18644 l 0.104275,-2.27939 0.774907,0 0.774906,0 0,51.18644 0,51.18644 -0.879767,0 -0.879767,0 5.86e-4,-48.90705 -10e-7,0 z"
     id="path3037"
     inkscape:connector-curvature="0" />
  <path
     style="fill:#800000"
     d="m 16.07373,353.37839 0,-51.18644 0.85442,0 0.85442,0 0.105326,3.14489 c 0.05793,1.7297 0.105326,24.76359 0.105326,51.18644 l 0,48.04155 -0.959746,0 -0.959746,0 0,-51.18644 z"
     id="path3039"
     inkscape:connector-curvature="0" />
  <path
     style="fill:#800000"
     d="m 36.068434,494.08769 c 0,-14.10564 0.04793,-40.01878 0.106505,-57.58474 l 0.106505,-31.93812 0.853241,0 0.85324,0 0,57.58474 0,57.58475 -0.959746,0 -0.959745,0 0,-25.64663 z"
     id="path3041"
     inkscape:connector-curvature="0" />
  <path
     style="fill:#800000"
     d="m 16.07373,462.14957 0,-57.58474 0.959746,0 0.959746,0 0,57.58474 0,57.58475 -0.959746,0 -0.959746,0 0,-57.58475 z"
     id="path3043"
     inkscape:connector-curvature="0" />
  <path
     style="fill:#800000"
     d="m 16.07373,556.0447 0,-36.31038 0.959746,0 0.959746,0 0,35.99047 0,35.99046 8.932942,0 8.932943,0 0.104014,-2.03946 c 0.05721,-1.1217 0.104307,-17.31741 0.104663,-35.99046 l 6.5e-4,-33.95101 0.959745,0 0.959746,0 0,36.31038 0,36.31038 -10.957097,0 -10.957098,0 0,-36.31038 z"
     id="path3045"
     inkscape:connector-curvature="0" />
</svg>
